<?xml version="1.0" encoding="UTF-8" standalone="no"?><!-- Generator: Gravit.io --><svg xmlns="http://www.w3.org/2000/svg" xmlns:xlink="http://www.w3.org/1999/xlink" style="isolation:isolate" viewBox="0 0 512 512" width="512pt" height="512pt"><defs><clipPath id="_clipPath_lGwQtt1i45I4Z0D6HisCzr2mor21d9D6"><rect width="512" height="512"/></clipPath></defs><g clip-path="url(#_clipPath_lGwQtt1i45I4Z0D6HisCzr2mor21d9D6)"><rect width="512" height="512" style="fill:rgb(44,44,44)" fill-opacity="0"/><path d=" M 227.5 109 L 294.5 109 Q 301.5 109.219 301.5 116 Q 301.5 119.156 301.5 282 Q 301.344 289 294.5 289 Q 292.266 289 268.5 289 Q 266.5 289.156 266.5 291 Q 266.5 291.781 266.5 292 Q 266.375 294 268.5 294 Q 269.719 294 294.5 294 Q 301.5 294.094 301.5 301 Q 301.5 303.5 301.5 331 Q 301.313 338 294.5 338 Q 292.656 338 227.5 338 Q 220.5 337.781 220.5 331 Q 220.5 329.344 220.5 116 Q 220.75 109 227.5 109 Z " fill="rgb(255,159,24)"/><path d=" M 319.218 180.812 L 383.668 162.503 Q 390.482 160.875 392.314 167.323 Q 392.481 167.909 406.251 216.382 Q 407.894 223.192 401.431 225.028 Q 399.372 225.613 369.687 234.046 Q 363.864 235.506 362.276 229.915 Q 361.733 228.006 361.183 226.067 Q 360.696 224.126 358.712 224.689 Q 357.54 225.023 357.75 224.963 Q 355.86 225.63 356.373 227.433 Q 356.719 228.651 357.466 231.281 Q 360.833 241.76 371.053 238.856 Q 377.381 237.058 402.797 229.838 Q 409.582 228.105 411.444 234.659 Q 412.49 238.341 433.033 310.652 Q 434.765 317.436 428.212 319.298 Q 425.341 320.114 363.762 337.608 Q 357.003 339.43 355.116 332.787 Q 354.262 329.781 341.179 283.728 Q 339.386 276.961 345.999 275.082 Q 347.923 274.535 377.743 266.064 Q 383.549 264.544 385.154 270.196 Q 385.611 271.804 386.248 274.043 Q 386.764 275.976 388.718 275.421 Q 389.304 275.254 389.68 275.147 Q 391.629 274.691 391.057 272.677 Q 390.831 271.88 389.964 268.829 Q 386.988 258.239 376.377 261.254 Q 371.131 262.744 344.633 270.272 Q 337.84 271.975 335.986 265.451 Q 335.047 262.145 314.398 189.459 Q 312.56 182.704 319.218 180.812 Z " fill="rgb(255,159,24)"/><path d=" M 134 175 L 201 175 Q 208 175.297 208 182 Q 208 182.609 208 233 Q 207.719 240 201 240 Q 198.859 240 168 240 Q 162 239.812 162 234 Q 162 232.016 162 230 Q 162.063 228 160 228 Q 158.781 228 159 228 Q 157 228.125 157 230 Q 157 231.266 157 234 Q 157.375 245 168 245 Q 174.578 245 201 245 Q 208 245.187 208 252 Q 208 255.828 208 331 Q 207.813 338 201 338 Q 198.016 338 134 338 Q 127 337.906 127 331 Q 127 327.875 127 280 Q 127.125 273 134 273 Q 136 273 167 273 Q 173 273.125 173 279 Q 173 280.672 173 283 Q 172.969 285 175 285 Q 175.609 285 176 285 Q 178 285.094 178 283 Q 178 282.172 178 279 Q 178.031 268 167 268 Q 161.547 268 134 268 Q 127 267.781 127 261 Q 127 257.563 127 182 Q 127.078 175 134 175 Z " fill="rgb(255,159,24)"/><line x1="106" y1="116" x2="106" y2="415.587" vector-effect="non-scaling-stroke" stroke-width="25" stroke="rgb(255,209,24)" stroke-linejoin="miter" stroke-linecap="round" stroke-miterlimit="3"/><line x1="49" y1="358.587" x2="433.033" y2="358.587" vector-effect="non-scaling-stroke" stroke-width="25" stroke="rgb(255,209,24)" stroke-linejoin="miter" stroke-linecap="round" stroke-miterlimit="3"/></g></svg>